
Release info:
General
Format : Matroska
Format version : Version 2
File size : 693 MiB
Duration : 1h 34mn
Overall bit rate : 1 025 Kbps
Video
ID : 1
Format : MPEG-4 Visual
Format profile : Advanced Simple@L5
Format settings, BVOP : Yes
Format settings, QPel : No
Format settings, GMC : No warppoints
Format settings, Matrix : Default (H.263)
Codec ID : V_MS/VFW/FOURCC / XVID
Codec ID/Hint : XviD
Duration : 1h 34mn
Bit rate : 876 Kbps
Width : 640 pixels
Height : 272 pixels
Display aspect ratio : 2.35:1
Frame rate mode : Constant
Frame rate : 25.000 fps
Color space : YUV
Chroma subsampling : 4:2:0
Bit depth : 8 bits
Scan type : Progressive
Compression mode : Lossy
Bits/(Pixel*Frame) : 0.201
Stream size : 593 MiB (86%)
Writing library : XviD 64
Language : English
Default : Yes
Forced : No
Audio
ID : 2
Format : MPEG Audio
Format version : Version 1
Format profile : Layer 3
Mode : Joint stereo
Muxing mode : Header stripping
Codec ID : A_MPEG/L3
Codec ID/Hint : MP3
Duration : 1h 34mn
Bit rate mode : Constant
Bit rate : 128 Kbps
Channel(s) : 2 channels
Sampling rate : 44.1 KHz
Compression mode : Lossy
Stream size : 86.6 MiB (12%)
Language : English
Default : Yes
Forced : No
Source:
credit to original movie ripper PSiG (Thanks)
IMDB Info:
[code]When three redneck brothers agree to help a woman save her son from an abusive father, they become targets on the run from an odd cast of characters.
Director: Barry Battles
Writers: Barry Battles, Griffin Hood
Stars: Daniel Cudmore, Thomas Brodie-Sangster and Paul Wesley
Genres: Action | Comedy | Crime 
http://www.imdb.com/title/tt1836944/
Screen Shot: 
http://www.shotpix.com/images/00864340887361448549.png 
http://www.shotpix.com/images/98984742051764540971.png 
http://www.shotpix.com/images/16947140906281713735.png 
http://www.shotpix.com/images/29167407052305755455.png 
http://www.shotpix.com/images/95341430338024446442.png 
http://www.shotpix.com/images/72830362169993824169.png 
http://www.shotpix.com/images/82379839555234263035.png 
http://www.shotpix.com/images/58483884585189854001.png